<?xml version="1.0" encoding="UTF-8" standalone="no"?>
<svg
   xmlns:dc="http://purl.org/dc/elements/1.1/"
   xmlns:cc="http://creativecommons.org/ns#"
   xmlns:rdf="http://www.w3.org/1999/02/22-rdf-syntax-ns#"
   xmlns:svg="http://www.w3.org/2000/svg"
   xmlns="http://www.w3.org/2000/svg"
   xmlns:sodipodi="http://sodipodi.sourceforge.net/DTD/sodipodi-0.dtd"
   xmlns:inkscape="http://www.inkscape.org/namespaces/inkscape"
   id="Layer_1"
   data-name="Layer 1"
   viewBox="0 0 252.69287 252.69285"
   version="1.1"
   sodipodi:docname="main_logo_new.svg"
   inkscape:version="0.92.2 (5c3e80d, 2017-08-06)"
   width="252.69286"
   height="252.69286"
   inkscape:export-filename="C:\Users\Dale\Downloads\16.png"
   inkscape:export-xdpi="6.078526"
   inkscape:export-ydpi="6.078526">
  <metadata
     id="metadata3763">
    <rdf:RDF>
      <cc:Work
         rdf:about="">
        <dc:format>image/svg+xml</dc:format>
        <dc:type
           rdf:resource="http://purl.org/dc/dcmitype/StillImage" />
        <dc:title>main_logo_new</dc:title>
      </cc:Work>
    </rdf:RDF>
  </metadata>
  <sodipodi:namedview
     pagecolor="#ffffff"
     bordercolor="#666666"
     borderopacity="1"
     objecttolerance="10"
     gridtolerance="10"
     guidetolerance="10"
     inkscape:pageopacity="0"
     inkscape:pageshadow="2"
     inkscape:window-width="1450"
     inkscape:window-height="1116"
     id="namedview3761"
     showgrid="false"
     inkscape:zoom="2.5711147"
     inkscape:cx="116.05032"
     inkscape:cy="130.54474"
     inkscape:window-x="700"
     inkscape:window-y="0"
     inkscape:window-maximized="0"
     inkscape:current-layer="Layer_1"
     fit-margin-top="0"
     fit-margin-left="0"
     fit-margin-right="0"
     fit-margin-bottom="0" />
  <defs
     id="defs3734">
    <style
       id="style3732">.cls-1{fill:#646665;}.cls-2{fill:#e54132;}</style>
  </defs>
  <title
     id="title3736">main_logo_new</title>
  <path
     style="fill:#000000;stroke-width:1.05994499;fill-opacity:1"
     inkscape:connector-curvature="0"
     class="cls-2"
     d="m 24.633682,169.68837 a 8.3872824,8.5728528 0 0 1 -2.725867,-0.5358 7.3388721,7.5012462 0 0 1 -4.613005,-9.10866 c 0.209682,-1.50025 2.411344,-22.07509 -16.87940601,-80.263332 a 7.6114588,7.7798639 0 0 1 3.87911811,-9.537299 7.6848475,7.8548764 0 0 1 9.7502159,2.571856 c 0.209682,0.321482 18.137498,32.255355 37.847612,50.151185 11.008308,-9.43013 20.548842,-21.53929 31.242627,-21.53929 9.855056,0 14.25838,12.96644 14.25838,25.82572 a 35.341911,36.123858 0 0 1 -2.096821,12.75212 c -3.250072,8.14421 -9.435693,9.10866 -12.056718,9.10866 -9.540534,0.21432 -18.766545,-11.25187 -30.403899,-19.71757 -11.847036,13.39509 -21.177888,35.79166 -21.282729,36.00599 a 7.8316249,8.0049013 0 0 1 -6.919508,4.28642 z"
     id="path3752" />
  <path
     style="fill:#000000;stroke-width:1.05994499;fill-opacity:1"
     inkscape:connector-curvature="0"
     class="cls-2"
     d="m 105.25643,173.22467 a 9.0687491,9.2693971 0 0 1 -6.395299,-2.78617 8.7018055,8.8943348 0 0 1 0.209682,-12.75212 C 111.33721,145.47006 115.11149,130.25325 110.18396,112.6789 A 77.917853,79.641803 0 0 0 98.336926,88.460592 8.8744077,9.0707558 0 0 1 112.17594,77.101562 95.02791,97.130422 0 0 1 127.16821,107.53519 c 6.81467,24.21831 1.36293,45.97192 -15.72616,63.01047 a 8.3243778,8.5085564 0 0 1 -6.18562,2.67901 z"
     id="path3754" />
  <path
     style="fill:#000000;stroke-width:1.05994499;fill-opacity:1"
     inkscape:connector-curvature="0"
     class="cls-2"
     d="m 129.26503,196.69286 a 8.859067,9.0550758 0 0 1 -6.29046,-15.43114 c 21.07305,-21.53929 27.46835,-48.22229 18.97622,-79.51321 a 134.61588,137.59429 0 0 0 -19.71011,-41.899815 8.8278395,9.0231574 0 1 1 14.0487,-10.930387 150.78237,154.11846 0 0 1 22.7505,48.007976 c 10.16958,37.506226 1.99198,71.047516 -23.48439,97.194716 a 9.771184,9.9873735 0 0 1 -6.29046,2.57186 z"
     id="path3756" />
  <path
     style="fill:#000000;stroke-width:1.05994499;fill-opacity:1"
     inkscape:connector-curvature="0"
     class="cls-2"
     d="M 251.92903,126.50263 C 224.14616,81.280827 186.61307,69.493155 168.68526,66.385496 a 4.8017192,4.9079582 0 0 0 -4.92753,7.286924 c 9.75021,17.145706 26.94414,58.61688 -0.52421,101.69547 a 4.7597828,4.865094 0 0 0 4.19364,7.50124 c 32.81525,-0.96444 53.88829,-6.75112 66.78374,-12.43063 5.03237,-2.25038 2.93555,-10.07311 -2.51618,-9.32298 l -20.23432,2.67902 c -5.3469,0.75012 -7.54856,-6.75113 -2.72587,-9.21582 l 41.30737,-21.11065 a 4.7178463,4.8222297 0 0 0 1.88713,-6.96544 z m -44.34775,1.71457 a 11.322831,11.573351 0 1 1 11.32283,-11.57335 11.343799,11.594783 0 0 1 -11.32283,11.57335 z"
     id="path3758" />
</svg>
